<?xml version="1.0" encoding="UTF-8" standalone="no"?>
<!DOCTYPE svg PUBLIC "-//W3C//DTD SVG 1.1//EN" "http://www.w3.org/Graphics/SVG/1.1/DTD/svg11.dtd">
<!-- Created with Vectornator (http://vectornator.io/) -->
<svg height="100%" stroke-miterlimit="10" style="fill-rule:nonzero;clip-rule:evenodd;stroke-linecap:round;stroke-linejoin:round;" version="1.1" viewBox="0 0 3000 3000" width="100%" xml:space="preserve" xmlns="http://www.w3.org/2000/svg" xmlns:vectornator="http://vectornator.io" xmlns:xlink="http://www.w3.org/1999/xlink">
<defs>
<linearGradient gradientTransform="matrix(1 0 0 1 0 0)" gradientUnits="userSpaceOnUse" id="LinearGradient" x1="75.9203" x2="2075.08" y1="924.595" y2="924.595">
<stop offset="0" stop-color="#f87105"/>
<stop offset="0.469008" stop-color="#f80505"/>
<stop offset="0.991736" stop-color="#f80505"/>
<stop offset="1" stop-color="#eff99a"/>
</linearGradient>
<linearGradient gradientTransform="matrix(1 0 0 1 0 0)" gradientUnits="userSpaceOnUse" id="LinearGradient_2" x1="927.005" x2="2889.88" y1="2079.07" y2="2079.07">
<stop offset="0" stop-color="#f87105"/>
<stop offset="0.469008" stop-color="#f80505"/>
<stop offset="0.991736" stop-color="#f80505"/>
<stop offset="1" stop-color="#eff99a"/>
</linearGradient>
<linearGradient gradientTransform="matrix(1 0 0 1 0 0)" gradientUnits="userSpaceOnUse" id="LinearGradient_3" x1="2053.76" x2="2924.08" y1="2155.42" y2="2155.42">
<stop offset="0" stop-color="#f87105"/>
<stop offset="0.469008" stop-color="#f80505"/>
<stop offset="0.991736" stop-color="#f80505"/>
<stop offset="1" stop-color="#eff99a"/>
</linearGradient>
<linearGradient gradientTransform="matrix(1 0 0 1 0 0)" gradientUnits="userSpaceOnUse" id="LinearGradient_4" x1="2308.27" x2="2519.6" y1="2091.91" y2="2091.91">
<stop offset="0" stop-color="#f87105"/>
<stop offset="0.469008" stop-color="#f80505"/>
<stop offset="0.991736" stop-color="#f80505"/>
<stop offset="1" stop-color="#eff99a"/>
</linearGradient>
<linearGradient gradientTransform="matrix(1 0 0 1 0 0)" gradientUnits="userSpaceOnUse" id="LinearGradient_5" x1="656.783" x2="868.154" y1="920.511" y2="920.511">
<stop offset="0" stop-color="#f87105"/>
<stop offset="0.469008" stop-color="#f80505"/>
<stop offset="0.991736" stop-color="#f80505"/>
<stop offset="1" stop-color="#eff99a"/>
</linearGradient>
<linearGradient gradientTransform="matrix(1 0 0 1 0 0)" gradientUnits="userSpaceOnUse" id="LinearGradient_6" x1="2541.25" x2="2754.79" y1="2093.28" y2="2093.28">
<stop offset="0" stop-color="#f87105"/>
<stop offset="0.469008" stop-color="#f80505"/>
<stop offset="0.991736" stop-color="#f80505"/>
<stop offset="1" stop-color="#eff99a"/>
</linearGradient>
<linearGradient gradientTransform="matrix(1 0 0 1 0 0)" gradientUnits="userSpaceOnUse" id="LinearGradient_7" x1="424.227" x2="636.534" y1="921.482" y2="921.482">
<stop offset="0" stop-color="#f87105"/>
<stop offset="0.469008" stop-color="#f80505"/>
<stop offset="0.991736" stop-color="#f80505"/>
<stop offset="1" stop-color="#eff99a"/>
</linearGradient>
<linearGradient gradientTransform="matrix(1 0 0 1 0 0)" gradientUnits="userSpaceOnUse" id="LinearGradient_8" x1="301.868" x2="871.76" y1="466.94" y2="466.94">
<stop offset="0" stop-color="#f87105"/>
<stop offset="0.469008" stop-color="#f80505"/>
<stop offset="0.991736" stop-color="#f80505"/>
<stop offset="1" stop-color="#eff99a"/>
</linearGradient>
<linearGradient gradientTransform="matrix(1 0 0 1 0 0)" gradientUnits="userSpaceOnUse" id="LinearGradient_9" x1="2091.4" x2="2719.13" y1="2740.19" y2="2740.19">
<stop offset="0" stop-color="#f87105"/>
<stop offset="0.469008" stop-color="#f80505"/>
<stop offset="0.991736" stop-color="#f80505"/>
<stop offset="1" stop-color="#eff99a"/>
</linearGradient>
<linearGradient gradientTransform="matrix(1 0 0 1 0 0)" gradientUnits="userSpaceOnUse" id="LinearGradient_10" x1="2165.81" x2="2261.92" y1="2000.66" y2="2000.66">
<stop offset="0" stop-color="#f87105"/>
<stop offset="0.469008" stop-color="#f80505"/>
<stop offset="0.991736" stop-color="#f80505"/>
<stop offset="1" stop-color="#eff99a"/>
</linearGradient>
<linearGradient gradientTransform="matrix(1 0 0 1 0 0)" gradientUnits="userSpaceOnUse" id="LinearGradient_11" x1="279.626" x2="374.737" y1="829.812" y2="829.812">
<stop offset="0" stop-color="#f87105"/>
<stop offset="0.469008" stop-color="#f80505"/>
<stop offset="0.991736" stop-color="#f80505"/>
<stop offset="1" stop-color="#eff99a"/>
</linearGradient>
<linearGradient gradientTransform="matrix(1 0 0 1 0 0)" gradientUnits="userSpaceOnUse" id="LinearGradient_12" x1="2164.52" x2="2261.03" y1="2215.28" y2="2215.28">
<stop offset="0" stop-color="#f87105"/>
<stop offset="0.469008" stop-color="#f80505"/>
<stop offset="0.991736" stop-color="#f80505"/>
<stop offset="1" stop-color="#eff99a"/>
</linearGradient>
<linearGradient gradientTransform="matrix(1 0 0 1 0 0)" gradientUnits="userSpaceOnUse" id="LinearGradient_13" x1="279.165" x2="376.586" y1="1043.43" y2="1043.43">
<stop offset="0" stop-color="#f87105"/>
<stop offset="0.469008" stop-color="#f80505"/>
<stop offset="0.991736" stop-color="#f80505"/>
<stop offset="1" stop-color="#eff99a"/>
</linearGradient>
<linearGradient gradientTransform="matrix(1 0 0 1 0 0)" gradientUnits="userSpaceOnUse" id="LinearGradient_14" x1="105.007" x2="908.384" y1="1397.27" y2="1397.27">
<stop offset="0" stop-color="#f87105"/>
<stop offset="0.469008" stop-color="#f80505"/>
<stop offset="0.991736" stop-color="#f80505"/>
<stop offset="1" stop-color="#eff99a"/>
</linearGradient>
<linearGradient gradientTransform="matrix(1 0 0 1 0 0)" gradientUnits="userSpaceOnUse" id="LinearGradient_15" x1="898.317" x2="910.268" y1="254.303" y2="254.303">
<stop offset="0" stop-color="#f87105"/>
<stop offset="0.469008" stop-color="#f80505"/>
<stop offset="0.991736" stop-color="#f80505"/>
<stop offset="1" stop-color="#eff99a"/>
</linearGradient>
<linearGradient gradientTransform="matrix(1 0 0 1 0 0)" gradientUnits="userSpaceOnUse" id="LinearGradient_16" x1="928.402" x2="963.484" y1="40.1387" y2="40.1387">
<stop offset="0" stop-color="#f87105"/>
<stop offset="0.469008" stop-color="#f80505"/>
<stop offset="0.991736" stop-color="#f80505"/>
<stop offset="1" stop-color="#eff99a"/>
</linearGradient>
</defs>
<g id="Layer-2" vectornator:layerName="Layer 2"/>
<g id="Layer-1" vectornator:layerName="Layer 1">
<g opacity="1">
<path d="M957.751 37.8922C939.394 56.25 906.157 15.8951 906.157 72.2886C906.157 194.109 907.105 315.934 906.157 437.75C906.147 438.999 899.221 443.482 898.991 443.483C700.736 444.432 502.476 443.053 304.22 443.483C282.239 443.531 260.231 443.545 238.293 444.916C236.945 445.001 236.382 446.827 235.427 447.783C237.577 449.933 237.577 449.933 239.726 452.082C228.585 463.224 198.436 448.4 192.431 466.414C171.14 466.414 121.175 516.381 110.74 533.774C104.518 544.144 99.44 568.593 87.8088 572.47C87.8088 590.013 76.4085 607.221 76.3434 624.064C75.3916 870.092 76.3434 1116.12 76.3434 1362.15C76.3434 1381.28 94.2104 1393.65 112.173 1393.68C373.967 1394.16 635.763 1394.16 897.558 1393.68C898.626 1393.68 899.469 1392.73 900.424 1392.25C906.705 1398.53 906.157 1397.65 906.157 1405.15C906.157 1531.27 905.683 1657.39 906.157 1783.51C906.192 1792.99 920.361 1797.46 923.355 1806.44C936.191 1806.44 936.768 1813.25 950.585 1810.74C976.562 1806.02 1017.2 1764.04 1039.44 1746.25C1099.67 1698.07 1159.9 1654.18 1218.59 1607.23C1297.02 1544.48 1379.27 1483.85 1459.37 1420.91C1496.78 1391.52 1543.43 1364.08 1578.32 1329.19C1581.46 1326.05 1587.86 1325.14 1591.22 1323.46C1611.65 1313.24 1623.41 1289.32 1645.68 1281.9C1654.11 1279.09 1663.15 1262.74 1671.48 1257.53C1700.87 1239.16 1731.7 1213.6 1757.47 1190.17C1759.43 1188.39 1765.04 1188.29 1767.5 1187.31C1772.69 1185.23 1780.15 1173.65 1784.7 1170.11C1798.49 1159.38 1812.87 1147.42 1827.69 1140.01C1834.48 1136.62 1844.92 1124.22 1850.62 1118.51C1854.04 1115.09 1861.32 1113.16 1864.96 1111.35C1881.54 1103.05 1894.97 1085.61 1909.39 1074.08C1964.15 1030.27 2023.14 990.43 2074.2 939.365C2069.69 930.348 2077.61 919.214 2074.2 910.701C2060.68 876.888 2005.33 851.865 1981.04 827.576C1965.58 812.112 1926.5 800.088 1919.42 778.848C1910.68 778.848 1864.42 739.616 1854.92 730.12C1843.37 718.566 1826.16 709.991 1813.36 701.456C1807.16 697.318 1802.92 686.922 1797.6 684.258C1771.17 671.045 1753.4 647.017 1728.8 629.797C1683.92 598.378 1639.7 558.926 1591.22 526.608C1574.79 515.657 1561.8 496.345 1545.36 486.479C1531.76 478.32 1511.56 467.354 1499.49 456.382C1493.74 451.151 1489.95 443.85 1483.73 439.184C1411.22 384.8 1329.52 327.583 1261.59 267.202C1249.59 256.542 1232.66 248.338 1221.46 238.538C1194.91 215.307 1170.39 193.431 1142.63 172.611C1127.93 161.582 1088.78 144.327 1082.44 125.316C1070.47 125.316 1064.11 111.929 1055.21 105.252C1023.65 81.5816 991.403 54.718 957.751 37.8922Z" fill="url(#LinearGradient)" fill-rule="nonzero" opacity="1" stroke="none"/>
<path d="M1525.29 1590.03C1518.54 1590.03 1504.11 1605.56 1498.06 1610.09C1469.12 1631.8 1439.12 1656.39 1409.2 1680.32C1293.63 1772.78 1170.14 1858.96 1056.64 1949.76C1023.54 1976.24 988.605 1999.27 957.751 2025.72C955.857 2027.34 928.257 2048.81 927.655 2057.25C926.804 2069.16 926.772 2081.17 927.655 2093.08C928.595 2105.77 954.735 2116.67 962.051 2123.17C987.263 2145.59 1016.92 2163.71 1040.88 2187.67C1050.21 2197 1069.53 2201.98 1073.84 2214.9C1084.73 2214.9 1128.27 2255.58 1138.33 2263.63C1178.7 2295.92 1217.02 2326.94 1258.72 2358.22C1267.94 2365.13 1315.26 2394.56 1318.91 2405.51C1325.68 2405.51 1350.89 2425.48 1353.31 2432.74C1367.58 2432.74 1409.45 2476.87 1423.54 2487.2C1461.5 2515.04 1504.03 2541.9 1538.19 2576.06C1552.73 2590.6 1591.58 2602.95 1598.38 2623.36C1609.02 2623.36 1628.31 2646.15 1635.65 2652.02C1663.82 2674.56 1695.61 2693.35 1721.64 2719.38C1729.03 2726.77 1743.85 2728.68 1747.44 2739.44C1752.95 2739.44 1752.53 2743.1 1756.03 2746.61C1769.07 2759.65 1790.42 2768.09 1803.33 2779.57C1808.13 2783.84 1810.72 2790.6 1816.23 2793.9C1878.59 2831.32 1932.77 2882.95 1989.64 2927.19C2015.82 2947.55 2039.87 2978.76 2075.63 2964.45C2078.03 2963.5 2092.81 2947.06 2092.83 2944.39C2093.78 2835.47 2094.25 2726.54 2092.83 2617.62C2092.75 2611.26 2087.44 2583.57 2082.8 2578.93C2075.63 2585.38 2075.63 2585.38 2068.47 2591.83C2060.37 2583.72 2052.73 2521.04 2062.74 2518.73C2084.28 2513.76 2121.09 2517.3 2141.56 2517.3C2314.02 2517.3 2486.48 2517.3 2658.94 2517.3C2683.94 2517.3 2710.25 2519.16 2734.9 2513C2742.13 2511.19 2750.68 2515.14 2757.83 2511.57C2760.85 2510.06 2761.84 2505.61 2765 2504.4C2776.33 2500.04 2794.29 2509.68 2799.39 2494.37C2813.66 2494.37 2833.71 2470.09 2843.82 2459.97C2875.05 2428.75 2889.68 2366.4 2889.68 2322.39C2889.68 2118.4 2890.12 1914.41 2889.68 1710.42C2889.64 1689.87 2888.71 1669.33 2888.25 1648.79C2888.21 1647.07 2888.98 1643.07 2885.38 1643.06C2611.65 1642.11 2337.91 1643.53 2064.17 1643.06C2062.66 1643.06 2061.3 1642.1 2059.87 1641.62C2059.87 1563.75 2054.99 1485.5 2062.74 1408.02C2063.54 1399.96 2058.78 1376.15 2067.04 1367.89C2071.75 1372.6 2083.5 1393.35 2085.67 1399.42C2087.65 1404.98 2085.79 1412.44 2089.97 1416.62C2090.92 1415.66 2092.81 1415.1 2092.83 1413.75C2093.77 1346.87 2095.14 1279.95 2092.83 1213.1C2092.21 1194.96 2054.54 1189.17 2045.54 1190.17C2037.77 1191.03 2029.79 1201.63 2022.61 1205.94C1991.37 1224.68 1961.85 1252.25 1933.75 1274.73C1836.87 1352.24 1735.65 1427.38 1637.08 1504.04C1612.44 1523.21 1587.32 1547.01 1559.69 1562.8C1555.13 1565.4 1527.7 1582.81 1525.29 1590.03Z" fill="url(#LinearGradient_2)" fill-rule="nonzero" opacity="1" stroke="none"/>
<path d="M2065.6 1363.59C2057.3 1371.89 2060.97 1400.32 2059.87 1408.02C2048.72 1486.05 2056.05 1565.67 2057 1644.49C2057.02 1645.84 2058.66 1646.75 2059.87 1647.36C2060.72 1647.78 2061.78 1647.36 2062.74 1647.36C2336 1646.88 2609.26 1645.45 2882.52 1645.92C2883.87 1645.93 2885.32 1647.44 2885.38 1648.79C2886.29 1668.83 2885.34 1688.92 2885.38 1708.98C2885.82 1913.45 2886.34 2117.92 2886.82 2322.39C2886.87 2346.3 2878.05 2418.94 2858.15 2425.58C2858.15 2453.12 2828.22 2472.28 2807.99 2485.77C2765.8 2513.9 2708.8 2514.43 2657.51 2514.43C2486 2514.43 2314.5 2515.87 2142.99 2515.87C2120.57 2515.87 2084.8 2510.83 2061.3 2515.87C2055.07 2517.2 2045.15 2625.26 2081.37 2581.79C2090.37 2587.79 2082.65 2603.53 2085.67 2613.32C2086.26 2615.26 2089.94 2615.6 2089.97 2617.62C2091.38 2726.54 2089.02 2835.47 2089.97 2944.39C2089.98 2945.74 2091.88 2946.3 2092.83 2947.26C2098.13 2941.96 2095.7 2935.72 2095.7 2928.62C2095.7 2805.37 2094.28 2682.11 2095.7 2558.86C2095.72 2556.84 2097.97 2554.58 2100 2554.56C2284.87 2553.14 2469.76 2554.56 2654.64 2554.56C2697.66 2554.56 2738.42 2550.51 2779.33 2545.96C2783.04 2545.55 2784.31 2539.7 2787.93 2538.8C2810.44 2533.17 2825 2524.56 2845.25 2514.43C2852.21 2510.96 2855.52 2502.73 2861.02 2497.24C2906.8 2451.46 2922.52 2405.03 2922.65 2341.02C2923.1 2105.02 2924.08 1869.02 2924.08 1633.03C2924.08 1622.5 2912.23 1615.23 2904.02 1608.66C2903.54 1608.28 2886.87 1604.36 2886.82 1604.36C2623.11 1603.41 2359.4 1605.31 2095.7 1604.36C2094.35 1604.36 2092.85 1602.85 2092.83 1601.5C2091.89 1539.88 2094.23 1478.23 2092.83 1416.62C2092.73 1411.88 2090.3 1395.45 2085.67 1390.82C2084.23 1391.53 2084.23 1391.53 2082.8 1392.25C2074.92 1384.37 2074.36 1372.35 2065.6 1363.59Z" fill="url(#LinearGradient_3)" fill-rule="nonzero" opacity="1" stroke="none"/>
<path d="M2429.63 1895.3C2428.2 1893.87 2428.2 1893.87 2426.76 1892.43C2414.77 1904.43 2427.27 1939.56 2409.57 1945.46C2409.57 1956.5 2407.83 1979 2405.27 1989.89C2403.83 1995.99 2395.42 2000.62 2393.8 2007.09C2386.81 2035.07 2377.66 2063.06 2370.87 2090.21C2367.51 2103.64 2370.46 2126.66 2355.11 2131.77C2355.11 2143.05 2354.64 2173.8 2346.51 2181.94C2345.07 2180.5 2345.07 2180.5 2343.64 2179.07C2338.42 2184.29 2333.57 2231.85 2329.31 2243.56C2313.2 2287.85 2278.83 2366.42 2360.84 2362.52C2399.71 2360.67 2388.29 2264.03 2415.3 2255.03C2415.3 2244.7 2415.52 2214.82 2428.2 2210.6C2428.2 2194.41 2422.8 2188.99 2435.36 2184.8C2435.36 2160.12 2441.78 2136.13 2452.56 2114.58C2456.12 2107.46 2450.01 2097.06 2456.86 2090.21C2458.29 2091.64 2458.29 2091.64 2459.73 2093.08C2466.18 2086.62 2461.24 2074.87 2462.59 2065.85C2464.75 2051.46 2476.39 2028.75 2481.23 2014.25C2487.29 1996.06 2484.51 1963.67 2498.42 1949.76C2499.86 1950.48 2499.86 1950.48 2501.29 1951.19C2514.62 1937.86 2497.31 1903.79 2518.49 1896.73C2518.49 1850.58 2531.91 1814.54 2465.46 1822.21C2464.77 1822.29 2453.62 1831.18 2452.56 1832.24C2435.51 1849.29 2444.69 1880.24 2429.63 1895.3Z" fill="url(#LinearGradient_4)" fill-rule="nonzero" opacity="1" stroke="none"/>
<path d="M741.341 829.01C741.341 845.197 746.738 850.619 734.175 854.807C734.175 904.448 708.419 947.798 696.912 993.826C693.627 1006.97 696.275 1039.42 682.58 1043.99C682.58 1058.9 675.752 1068.88 671.115 1081.25C661.938 1105.72 656.783 1139.61 656.783 1167.24C656.783 1191.82 705.979 1196.04 718.41 1185.87C739.187 1168.87 737.379 1119.83 754.239 1114.21C754.239 1099.39 749.741 1095.17 761.405 1091.28C761.405 1044.84 784.414 1002.17 797.235 959.429C800.466 948.657 792.265 935.736 801.534 926.466C803.684 928.616 803.684 928.616 805.834 930.766C814.775 921.824 804.838 908.394 810.133 897.802C814.944 888.182 821.009 875.207 824.465 864.839C828.374 853.115 824.307 837.925 830.198 826.143C834.318 817.903 838.854 807.861 840.23 798.913C841.807 788.663 843.273 767.324 855.995 763.083C855.995 747.563 851.045 742.758 863.161 738.719C863.161 712.131 870.374 703.91 867.461 669.926C864.964 640.791 799.785 643.96 791.502 677.092C785.13 702.581 776.276 722.942 772.871 750.185C771.849 758.356 756.21 777.058 755.672 780.281C753.433 793.721 758.642 823.242 741.341 829.01Z" fill="url(#LinearGradient_5)" fill-rule="nonzero" opacity="1" stroke="none"/>
<path d="M2673.27 2170.47C2673.27 2154.95 2668.32 2150.14 2680.44 2146.11C2680.44 2124.48 2685.94 2112.42 2691.9 2094.51C2695.06 2085.04 2692.68 2072.67 2696.2 2062.98C2698.03 2057.95 2702.51 2059.96 2703.37 2054.38C2707.72 2026.11 2716.55 1998.81 2723.43 1971.26C2724.34 1967.64 2729.57 1966.25 2730.6 1962.66C2733.24 1953.42 2730.87 1943.39 2734.9 1933.99C2742 1917.42 2742.64 1906.57 2746.36 1886.7C2746.93 1883.69 2753.22 1884.01 2753.53 1880.97C2759.01 1827.99 2747.53 1822.21 2700.5 1822.21C2681.56 1822.21 2682.02 1846.81 2677.57 1856.6C2674.53 1863.28 2667.64 1869.53 2666.11 1876.67C2663.93 1886.82 2666.31 1901.16 2660.37 1911.06C2658.8 1913.69 2653.74 1913.78 2653.21 1916.8C2651.96 1923.85 2654.39 1931.23 2653.21 1938.29C2652.23 1944.16 2645.11 1951.12 2643.18 1956.93C2638.91 1969.71 2636.22 1982.17 2631.71 1994.19C2627.36 2005.8 2630.52 2020.77 2625.98 2032.88C2624.9 2035.75 2619.41 2035.62 2618.81 2038.62C2617.59 2044.71 2619.96 2051.14 2618.81 2057.25C2618.42 2059.35 2612.63 2064.83 2611.65 2067.28C2605.82 2081.85 2603.91 2097.06 2601.61 2113.14C2599.99 2124.53 2593.51 2137.77 2590.15 2148.97C2589.1 2152.48 2580.72 2158.68 2580.12 2161.87C2578.6 2169.85 2580.54 2178.12 2580.12 2186.23C2579.88 2190.63 2572.83 2192.06 2571.52 2196.27C2566.94 2210.91 2571.82 2230.06 2564.35 2245C2562.57 2248.56 2557.96 2252.57 2557.18 2256.46C2551.66 2284.11 2521.89 2343.81 2561.48 2359.65C2614.83 2380.99 2621.5 2324.71 2636.01 2290.86C2640.62 2280.09 2635.88 2264.35 2641.74 2253.59C2647.43 2243.17 2652.24 2232.14 2656.07 2220.63C2660.56 2207.17 2655.78 2176.3 2673.27 2170.47Z" fill="url(#LinearGradient_6)" fill-rule="nonzero" opacity="1" stroke="none"/>
<path d="M550.727 990.959C552.16 992.393 552.16 992.393 553.594 993.826C561.012 986.408 558.297 961.084 562.193 949.397C568.058 931.801 571.173 914.557 576.525 894.936C578.228 888.691 585.159 880.93 586.557 874.872C589.275 863.094 589.356 831.421 600.889 827.576C600.889 807.702 609.706 778.085 615.22 758.784C616.892 752.933 625.719 744.056 626.686 737.286C627.497 731.611 625.562 725.709 626.686 720.088C630.309 701.973 641.655 691.902 633.852 668.493C626.441 646.259 588.803 651.54 576.525 652.728C567.67 653.585 553.014 680.021 552.16 688.558C549.773 712.435 536.729 756.683 526.363 777.415C520.381 789.379 522.772 806.458 517.764 818.977C515.291 825.159 509.295 831.357 507.732 837.609C495.93 884.815 482.776 929.422 473.335 976.628C471.21 987.255 459.116 997.789 456.137 1006.72C453.72 1013.98 457.329 1022.11 456.137 1029.66C455.026 1036.69 448.244 1045.1 446.105 1052.59C443.608 1061.33 446.643 1070.94 444.672 1079.82C443.186 1086.5 435.107 1096.91 431.773 1102.75C429.132 1107.37 426.186 1121.73 426.04 1127.11C425.627 1142.4 423.337 1157.73 424.607 1172.97C426.075 1190.59 468.782 1191.89 474.768 1191.61C476.58 1191.52 508.082 1159.4 509.165 1154.34C510.366 1148.74 508.354 1142.82 509.165 1137.14C513.564 1106.35 526.627 1068.12 539.262 1039.69C545.281 1026.15 539.824 1001.86 550.727 990.959Z" fill="url(#LinearGradient_7)" fill-rule="nonzero" opacity="1" stroke="none"/>
<path d="M871.76 479.313C867.567 470.927 861.776 476.494 855.995 470.714C862.445 464.264 862.445 464.264 868.894 457.815C868.284 456.596 866.41 452.092 864.594 452.082C678.761 451.132 492.913 450.191 307.086 452.082C296.122 452.194 305.608 482.172 307.086 482.179C494.353 483.13 681.627 483.13 868.894 482.179C870.245 482.172 870.805 480.268 871.76 479.313Z" fill="url(#LinearGradient_8)" fill-rule="nonzero" opacity="1" stroke="none"/>
<path d="M2097.13 2932.92C2105.04 2925.01 2100 2901.08 2100 2892.79C2100 2784.83 2099.53 2676.86 2100 2568.89C2100.01 2565.8 2102.02 2563.44 2104.3 2561.73C2115.77 2553.13 2132.96 2560.76 2147.29 2560.3C2178.46 2559.29 2210.5 2560.3 2241.88 2560.3C2361.33 2560.3 2480.66 2558.86 2600.18 2558.86C2615.14 2558.86 2708.98 2566.15 2719.13 2556C2704.21 2541.07 2677.18 2550.26 2656.07 2550.26C2470.72 2550.26 2285.34 2548.87 2100 2551.7C2096.62 2551.75 2092.9 2555.49 2092.83 2558.86C2090.49 2682.09 2091.42 2805.38 2092.83 2928.62C2092.86 2930.65 2095.7 2931.49 2097.13 2932.92Z" fill="url(#LinearGradient_9)" fill-rule="nonzero" opacity="1" stroke="none"/>
<path d="M2207.49 1951.19C2144.41 1959.43 2154.78 2059 2226.12 2050.08C2251.16 2046.95 2272.53 2000.18 2256.22 1978.42C2241.59 1958.92 2231.28 1948.09 2207.49 1951.19Z" fill="url(#LinearGradient_10)" fill-rule="nonzero" opacity="1" stroke="none"/>
<path d="M311.386 781.715C266.854 791.026 273.614 851.068 304.22 874.872C315.162 883.382 331.988 877.684 345.782 876.305C371.513 873.732 380.042 825.87 371.579 808.945C359.303 784.392 336.483 776.467 311.386 781.715Z" fill="url(#LinearGradient_11)" fill-rule="nonzero" opacity="1" stroke="none"/>
<path d="M2207.49 2167.6C2155.56 2169.81 2153.63 2226.59 2185.99 2256.46C2197.62 2267.2 2217.49 2261.78 2233.29 2260.76C2253.04 2259.49 2263.53 2221.37 2260.52 2206.3C2254.86 2178.03 2233.06 2166.52 2207.49 2167.6Z" fill="url(#LinearGradient_12)" fill-rule="nonzero" opacity="1" stroke="none"/>
<path d="M317.118 996.692C274.653 1000.6 268.322 1053.95 295.62 1081.25C310.338 1095.97 322.5 1089.21 347.215 1088.42C364.612 1087.85 382.931 1046.66 374.446 1032.52C358.315 1005.64 351.074 993.567 317.118 996.692Z" fill="url(#LinearGradient_13)" fill-rule="nonzero" opacity="1" stroke="none"/>
<path d="M109.307 1389.38C107.157 1391.53 107.157 1391.53 105.007 1393.68C105.962 1394.64 106.522 1396.55 107.873 1396.55C371.1 1397.5 634.345 1393.72 897.558 1396.55C901.611 1396.59 903.29 1402.28 906.157 1405.15C911.428 1399.88 906.662 1389.37 898.991 1389.38C636.718 1389.86 374.446 1390.82 112.173 1390.82C111.105 1390.82 110.262 1389.86 109.307 1389.38Z" fill="url(#LinearGradient_14)" fill-rule="nonzero" opacity="1" stroke="none"/>
<path d="M903.29 66.5559C898.648 71.1984 898.991 82.7399 898.991 89.4868C898.991 194.588 900.424 299.686 900.424 404.787C900.424 423.311 893.512 430.838 904.724 442.05C906.157 441.095 909.003 440.906 909.023 439.184C910.445 316.894 910.904 194.572 909.023 72.2886C908.982 69.5865 905.201 68.4668 903.29 66.5559Z" fill="url(#LinearGradient_15)" fill-rule="nonzero" opacity="1" stroke="none"/>
<path d="M929.088 33.5926C924.818 46.4006 941.473 49.6821 952.019 47.9245C954.009 47.5928 961.829 37.7002 963.484 36.459C955.349 28.3236 940.593 33.5926 929.088 33.5926Z" fill="url(#LinearGradient_16)" fill-rule="nonzero" opacity="1" stroke="none"/>
</g>
</g>
</svg>
